<?xml version="1.0" encoding="utf-8"?>
<!-- Generator: Adobe Illustrator 25.2.0, SVG Export Plug-In . SVG Version: 6.00 Build 0)  -->
<svg version="1.1" id="Layer_1" xmlns="http://www.w3.org/2000/svg" xmlns:xlink="http://www.w3.org/1999/xlink" x="0px" y="0px"
	 viewBox="0 0 256 256" style="enable-background:new 0 0 256 256;" xml:space="preserve">
<style type="text/css">
	.st0{fill:#FFC542;}
	.st1{fill:#6463E3;}
</style>
<g>
	<path class="st0" d="M128.1,118.3c-5.4,0-9.8,4.4-9.8,9.8s4.4,9.8,9.8,9.8c5.4,0,9.8-4.4,9.8-9.8
		C137.9,122.7,133.5,118.3,128.1,118.3z"/>
	<path class="st0" d="M160,128.1c0-5.4-4.3-9.8-9.8-9.8s-9.8,4.3-9.8,9.8c0,5.4,4.3,9.8,9.8,9.8c0,0,0,0,0,0
		C155.6,137.8,160,133.5,160,128.1z"/>
	<path class="st0" d="M172.3,137.8c5.4,0,9.7-4.4,9.7-9.8s-4.4-9.7-9.8-9.7c-5.4,0-9.7,4.4-9.7,9.8
		C162.5,133.5,166.9,137.8,172.3,137.8C172.3,137.8,172.3,137.8,172.3,137.8z"/>
	<path class="st0" d="M150.2,140.4c-5.4,0-9.8,4.4-9.8,9.8c0,5.4,4.4,9.8,9.8,9.8c5.4,0,9.8-4.4,9.8-9.8l0,0
		C160,144.8,155.6,140.4,150.2,140.4z"/>
	<path class="st0" d="M182.1,150.2c0-5.4-4.3-9.8-9.8-9.8c-5.4,0-9.8,4.3-9.8,9.8c0,5.4,4.3,9.8,9.8,9.8c0,0,0.1,0,0.1,0
		C177.7,159.9,182.1,155.6,182.1,150.2z"/>
	<path class="st0" d="M194.4,159.9c5.4,0,9.8-4.3,9.8-9.8c0-5.4-4.3-9.8-9.8-9.8s-9.8,4.3-9.8,9.8c0,0,0,0.1,0,0.1
		C184.7,155.6,189,159.9,194.4,159.9z"/>
	<path class="st0" d="M182.1,172.3c0-5.4-4.3-9.8-9.8-9.8c-5.4,0-9.8,4.3-9.8,9.8c0,5.4,4.3,9.8,9.8,9.8c0,0,0.1,0,0.1,0
		C177.7,182,182.1,177.7,182.1,172.3L182.1,172.3z"/>
	<path class="st0" d="M194.4,162.5c-5.4,0-9.7,4.4-9.7,9.8c0,5.4,4.4,9.7,9.8,9.7c5.4,0,9.7-4.4,9.7-9.8
		C204.2,166.9,199.8,162.5,194.4,162.5C194.4,162.5,194.4,162.5,194.4,162.5z"/>
	<path class="st0" d="M216.5,182c5.4,0,9.7-4.4,9.7-9.8c0-5.4-4.4-9.7-9.8-9.7c-5.4,0-9.7,4.4-9.7,9.8
		C206.7,177.7,211.1,182,216.5,182C216.5,182,216.5,182,216.5,182z"/>
	<path class="st0" d="M150.2,184.6c-5.4,0-9.8,4.4-9.8,9.8c0,5.4,4.4,9.8,9.8,9.8c5.4,0,9.8-4.4,9.8-9.8c0,0,0,0,0,0
		C160,188.9,155.6,184.6,150.2,184.6z"/>
	<path class="st0" d="M172.3,184.6c-5.4,0-9.8,4.3-9.8,9.8c0,5.4,4.3,9.8,9.8,9.8c5.4,0,9.8-4.3,9.8-9.8c0,0,0,0,0,0
		C182.1,189,177.7,184.6,172.3,184.6z"/>
	<path class="st0" d="M184.6,194.4c0,5.4,4.4,9.8,9.8,9.8c5.4,0,9.8-4.4,9.8-9.8c0-5.4-4.4-9.8-9.8-9.8c0,0,0,0,0,0
		C189,184.6,184.6,189,184.6,194.4C184.6,194.4,184.6,194.4,184.6,194.4z"/>
	<path class="st0" d="M128.1,206.7c-5.4,0-9.8,4.4-9.8,9.8c0,5.4,4.4,9.8,9.8,9.8c5.4,0,9.8-4.4,9.8-9.8
		C137.9,211.1,133.5,206.7,128.1,206.7z"/>
	<path class="st0" d="M150.2,206.7c-5.4,0-9.7,4.4-9.7,9.8c0,5.4,4.4,9.7,9.8,9.7c5.4,0,9.7-4.4,9.7-9.8
		C160,211.1,155.6,206.7,150.2,206.7C150.2,206.7,150.2,206.7,150.2,206.7z"/>
	<path class="st0" d="M172.3,226.2c5.4,0,9.7-4.4,9.7-9.8c0-5.4-4.4-9.7-9.8-9.7c-5.4,0-9.7,4.4-9.7,9.8
		C162.5,221.9,166.9,226.2,172.3,226.2C172.3,226.2,172.3,226.2,172.3,226.2z"/>
	<path class="st0" d="M128.1,29.8c-5.4,0-9.8,4.3-9.8,9.8c0,5.4,4.3,9.8,9.8,9.8c5.4,0,9.8-4.3,9.8-9.8c0,0,0-0.1,0-0.1
		C137.9,34.2,133.5,29.8,128.1,29.8z"/>
	<path class="st0" d="M160,39.6c0-5.4-4.4-9.8-9.8-9.8c-5.4,0-9.8,4.4-9.8,9.8s4.4,9.8,9.8,9.8C155.6,49.4,160,45,160,39.6L160,39.6
		z"/>
	<path class="st0" d="M172.3,49.4c5.4,0,9.8-4.4,9.8-9.8c0-5.4-4.4-9.8-9.8-9.8c-5.4,0-9.8,4.4-9.8,9.8v0
		C162.5,45,166.9,49.4,172.3,49.4z"/>
	<path class="st0" d="M150.2,51.9c-5.4,0-9.7,4.4-9.7,9.8c0,5.4,4.4,9.7,9.8,9.7c5.4,0,9.7-4.4,9.7-9.8
		C160,56.3,155.6,51.9,150.2,51.9C150.2,51.9,150.2,51.9,150.2,51.9z"/>
	<path class="st0" d="M182.1,61.7c0-5.4-4.3-9.8-9.8-9.8s-9.8,4.3-9.8,9.8c0,5.4,4.3,9.8,9.8,9.8c0,0,0.1,0,0.1,0
		C177.7,71.5,182.1,67.1,182.1,61.7L182.1,61.7z"/>
	<path class="st0" d="M194.4,71.5c5.4,0,9.8-4.4,9.8-9.8s-4.4-9.8-9.8-9.8c-5.4,0-9.8,4.4-9.8,9.8C184.7,67.1,189,71.4,194.4,71.5z"
		/>
	<path class="st0" d="M182.1,83.8c0-5.4-4.4-9.8-9.8-9.8c-5.4,0-9.8,4.4-9.8,9.8c0,5.4,4.4,9.8,9.8,9.8c0,0,0,0,0,0
		C177.7,93.6,182.1,89.2,182.1,83.8C182.1,83.8,182.1,83.8,182.1,83.8z"/>
	<path class="st0" d="M194.4,74c-5.4,0-9.8,4.4-9.8,9.8s4.4,9.8,9.8,9.8c5.4,0,9.8-4.4,9.8-9.8c0,0,0,0,0,0
		C204.2,78.4,199.8,74,194.4,74C194.4,74,194.4,74,194.4,74z"/>
	<path class="st0" d="M216.5,93.6c5.4,0,9.8-4.4,9.8-9.8c0-5.4-4.4-9.8-9.8-9.8c-5.4,0-9.8,4.4-9.8,9.8v0
		C206.7,89.2,211.1,93.6,216.5,93.6z"/>
	<path class="st0" d="M150.2,96c-5.4,0-9.8,4.4-9.8,9.8c0,5.4,4.4,9.8,9.8,9.8c5.4,0,9.8-4.4,9.8-9.8c0,0,0,0,0,0
		C160,100.3,155.6,96,150.2,96C150.2,96,150.2,96,150.2,96z"/>
	<path class="st0" d="M172.3,96c-5.4,0-9.8,4.4-9.8,9.8s4.4,9.8,9.8,9.8c5.4,0,9.8-4.4,9.8-9.8C182.1,100.4,177.7,96,172.3,96z"/>
	<path class="st0" d="M184.6,105.9c0.1,5.4,4.5,9.7,9.9,9.7c5.4-0.1,9.7-4.5,9.7-9.9c-0.1-5.4-4.5-9.7-9.8-9.7
		C189,96,184.6,100.5,184.6,105.9C184.6,105.9,184.6,105.9,184.6,105.9z"/>
	<path class="st0" d="M128.1,118.2c-5.4,0-9.8,4.3-9.8,9.8c0,5.4,4.3,9.8,9.8,9.8c5.4,0,9.8-4.3,9.8-9.8c0,0,0-0.1,0-0.1
		C137.9,122.6,133.5,118.2,128.1,118.2z"/>
	<path class="st0" d="M150.2,118.2c-5.4,0-9.8,4.4-9.8,9.8c0,5.4,4.4,9.8,9.8,9.8c5.4,0,9.8-4.4,9.8-9.8c0,0,0,0,0,0
		C160,122.6,155.6,118.2,150.2,118.2C150.2,118.2,150.2,118.2,150.2,118.2z"/>
	<path class="st0" d="M172.3,137.8c5.4,0,9.8-4.4,9.8-9.8c0-5.4-4.4-9.8-9.8-9.8c-5.4,0-9.8,4.4-9.8,9.8v0
		C162.5,133.4,166.9,137.8,172.3,137.8z"/>
	<path class="st1" d="M39.5,118.3c-5.4,0-9.7,4.4-9.7,9.8c0,5.4,4.4,9.7,9.8,9.7c5.4,0,9.7-4.4,9.7-9.8
		C49.3,122.7,44.9,118.3,39.5,118.3C39.5,118.3,39.5,118.3,39.5,118.3z"/>
	<path class="st1" d="M71.4,128.1c0-5.4-4.3-9.8-9.8-9.8c-5.4,0-9.8,4.3-9.8,9.8c0,5.4,4.3,9.8,9.8,9.8c0,0,0.1,0,0.1,0
		C67,137.8,71.4,133.5,71.4,128.1L71.4,128.1z"/>
	<path class="st1" d="M83.7,137.8c5.4,0,9.8-4.4,9.8-9.8c0-5.4-4.4-9.8-9.8-9.8c-5.4,0-9.8,4.4-9.8,9.8
		C73.9,133.4,78.3,137.8,83.7,137.8z"/>
	<path class="st1" d="M61.6,140.4c-5.4,0-9.8,4.3-9.8,9.8c0,5.4,4.3,9.8,9.8,9.8c5.4,0,9.8-4.3,9.8-9.8c0,0,0,0,0,0
		C71.3,144.8,67,140.4,61.6,140.4z"/>
	<path class="st1" d="M93.5,150.2c0-5.4-4.3-9.8-9.8-9.8c-5.4,0-9.8,4.3-9.8,9.8c0,5.4,4.3,9.8,9.8,9.8c0,0,0,0,0,0
		C89.1,159.9,93.5,155.6,93.5,150.2z"/>
	<path class="st1" d="M105.8,159.9c5.4-0.1,9.7-4.5,9.7-9.9c-0.1-5.4-4.5-9.7-9.9-9.7c-5.4,0.1-9.7,4.5-9.7,9.8
		c0,5.4,4.4,9.8,9.8,9.8C105.7,159.9,105.7,159.9,105.8,159.9z"/>
	<path class="st1" d="M93.5,172.3c0-5.4-4.3-9.8-9.8-9.8s-9.8,4.3-9.8,9.8c0,5.4,4.3,9.8,9.8,9.8c0,0,0,0,0,0
		C89.1,182,93.5,177.7,93.5,172.3z"/>
	<path class="st1" d="M105.8,162.5c-5.4,0-9.8,4.4-9.8,9.8c0,5.4,4.4,9.8,9.8,9.8c5.4,0,9.8-4.4,9.8-9.8
		C115.6,166.9,111.2,162.5,105.8,162.5L105.8,162.5z"/>
	<path class="st1" d="M127.9,182c5.4,0,9.8-4.4,9.8-9.8c0-5.4-4.4-9.8-9.8-9.8c-5.4,0-9.8,4.4-9.8,9.8
		C118.1,177.6,122.5,182,127.9,182z"/>
	<path class="st1" d="M61.6,184.6c-5.4,0-9.8,4.3-9.8,9.8c0,5.4,4.3,9.8,9.8,9.8c5.4,0,9.8-4.3,9.8-9.8c0,0,0-0.1,0-0.1
		C71.3,189,67,184.6,61.6,184.6z"/>
	<path class="st1" d="M83.7,184.6c-5.4,0-9.8,4.4-9.8,9.8c0,5.4,4.4,9.8,9.8,9.8s9.8-4.4,9.8-9.8l0,0
		C93.5,189,89.1,184.6,83.7,184.6z"/>
	<path class="st1" d="M95.9,194.4c0,5.4,4.4,9.7,9.8,9.7s9.7-4.4,9.7-9.8c0-5.4-4.4-9.7-9.8-9.7C100.2,184.6,95.9,189,95.9,194.4
		C95.9,194.4,95.9,194.4,95.9,194.4z"/>
	<path class="st1" d="M39.5,206.7c-5.4,0-9.7,4.4-9.7,9.8c0,5.4,4.4,9.7,9.8,9.7c5.4,0,9.7-4.4,9.7-9.8
		C49.3,211.1,44.9,206.7,39.5,206.7C39.5,206.7,39.5,206.7,39.5,206.7z"/>
	<path class="st1" d="M61.6,206.7c-5.4,0-9.8,4.4-9.8,9.8c0,5.4,4.4,9.8,9.8,9.8s9.8-4.4,9.8-9.8C71.3,211.1,67,206.7,61.6,206.7z"
		/>
	<path class="st1" d="M83.7,226.2c5.4,0,9.8-4.4,9.8-9.8s-4.4-9.8-9.8-9.8c-5.4,0-9.8,4.4-9.8,9.8C73.9,221.8,78.3,226.2,83.7,226.2
		z"/>
	<path class="st1" d="M39.5,29.8c-5.4,0-9.8,4.4-9.8,9.8c0,5.4,4.4,9.8,9.8,9.8s9.8-4.4,9.8-9.8c0,0,0,0,0,0
		C49.3,34.2,44.9,29.8,39.5,29.8C39.5,29.8,39.5,29.8,39.5,29.8z"/>
	<path class="st1" d="M71.4,39.6c0-5.4-4.4-9.8-9.8-9.8c-5.4,0-9.8,4.4-9.8,9.8s4.4,9.8,9.8,9.8c0,0,0,0,0,0
		C67,49.4,71.4,45,71.4,39.6C71.4,39.6,71.4,39.6,71.4,39.6z"/>
	<path class="st1" d="M83.7,49.4c5.4,0,9.8-4.3,9.8-9.8s-4.3-9.8-9.8-9.8c-5.4,0-9.8,4.3-9.8,9.8c0,0,0,0,0,0
		C73.9,45,78.3,49.4,83.7,49.4z"/>
	<path class="st1" d="M61.6,51.9c-5.4,0-9.8,4.4-9.8,9.8s4.4,9.8,9.8,9.8s9.8-4.4,9.8-9.8l0,0C71.3,56.3,67,52,61.6,51.9z"/>
	<path class="st1" d="M93.5,61.7c0-5.4-4.3-9.8-9.8-9.8c-5.4,0-9.8,4.3-9.8,9.8c0,5.4,4.3,9.8,9.8,9.8c0,0,0,0,0,0
		C89.1,71.5,93.5,67.1,93.5,61.7z"/>
	<path class="st1" d="M105.8,71.5c5.4-0.1,9.7-4.5,9.6-9.9c-0.1-5.4-4.5-9.7-9.9-9.6c-5.3,0.1-9.6,4.4-9.6,9.8
		c0,5.4,4.4,9.8,9.8,9.8C105.7,71.5,105.7,71.5,105.8,71.5z"/>
	<path class="st1" d="M93.5,83.8c0-5.4-4.4-9.8-9.8-9.8s-9.8,4.4-9.8,9.8s4.4,9.8,9.8,9.8l0,0C89.1,93.6,93.5,89.2,93.5,83.8z"/>
	<path class="st1" d="M105.8,74c-5.4,0-9.8,4.3-9.8,9.8c0,5.4,4.3,9.8,9.8,9.8c5.4,0,9.8-4.3,9.8-9.8c0,0,0-0.1,0-0.1
		C115.6,78.4,111.2,74,105.8,74L105.8,74z"/>
	<path class="st1" d="M127.9,93.6c5.4,0,9.8-4.3,9.8-9.8c0-5.4-4.3-9.8-9.8-9.8s-9.8,4.3-9.8,9.8c0,0,0,0,0,0
		C118.1,89.2,122.5,93.6,127.9,93.6z"/>
	<path class="st1" d="M61.6,96c-5.4,0-9.8,4.3-9.8,9.8c0,5.4,4.3,9.8,9.8,9.8c5.4,0,9.8-4.3,9.8-9.8c0,0,0-0.1,0-0.1
		C71.3,100.4,67,96,61.6,96z"/>
	<path class="st1" d="M83.7,96c-5.4,0-9.7,4.4-9.7,9.8c0,5.4,4.4,9.7,9.8,9.7c5.4,0,9.7-4.4,9.7-9.8C93.5,100.3,89.1,96,83.7,96
		C83.7,96,83.7,96,83.7,96z"/>
	<path class="st1" d="M95.9,105.9c0.1,5.4,4.5,9.7,9.9,9.6c5.4-0.1,9.7-4.5,9.6-9.9c-0.1-5.3-4.3-9.5-9.6-9.6
		c-5.4,0-9.9,4.3-9.9,9.8C95.9,105.8,95.9,105.8,95.9,105.9z"/>
	<path class="st1" d="M39.5,118.2c-5.4,0-9.8,4.4-9.8,9.8c0,5.4,4.4,9.8,9.8,9.8s9.8-4.4,9.8-9.8c0,0,0,0,0,0
		C49.3,122.6,44.9,118.2,39.5,118.2C39.5,118.2,39.5,118.2,39.5,118.2z"/>
	<path class="st1" d="M61.6,118.2c-5.4,0-9.8,4.3-9.8,9.8s4.3,9.8,9.8,9.8c5.4,0,9.8-4.3,9.8-9.8c0,0,0-0.1,0-0.1
		C71.3,122.6,67,118.2,61.6,118.2z"/>
	<path class="st1" d="M83.7,137.8c5.4,0,9.8-4.3,9.8-9.8c0-5.4-4.3-9.8-9.8-9.8c-5.4,0-9.8,4.3-9.8,9.8c0,0,0,0,0,0
		C73.9,133.4,78.3,137.8,83.7,137.8z"/>
</g>
<g>
	<path class="st0" d="M-73.9,59.1c-2.7,0-4.9,2.2-4.9,4.9c0,2.7,2.2,4.9,4.9,4.9S-69,66.7-69,64C-69,61.3-71.2,59.1-73.9,59.1z"/>
	<path class="st0" d="M-57.9,64c0-2.7-2.2-4.9-4.9-4.9c-2.7,0-4.9,2.2-4.9,4.9s2.2,4.9,4.9,4.9c0,0,0,0,0,0
		C-60.1,68.9-57.9,66.7-57.9,64z"/>
	<path class="st0" d="M-51.7,68.9c2.7,0,4.9-2.2,4.9-4.9c0-2.7-2.2-4.9-4.9-4.9c-2.7,0-4.9,2.2-4.9,4.9
		C-56.6,66.7-54.4,68.9-51.7,68.9C-51.7,68.9-51.7,68.9-51.7,68.9z"/>
	<path class="st0" d="M-62.8,70.2c-2.7,0-4.9,2.2-4.9,4.9c0,2.7,2.2,4.9,4.9,4.9s4.9-2.2,4.9-4.9l0,0
		C-57.9,72.4-60.1,70.2-62.8,70.2z"/>
	<path class="st0" d="M-46.8,75.1c0-2.7-2.2-4.9-4.9-4.9s-4.9,2.2-4.9,4.9c0,2.7,2.2,4.9,4.9,4.9c0,0,0,0,0,0
		C-49,80-46.8,77.8-46.8,75.1z"/>
	<path class="st0" d="M-40.6,80c2.7,0,4.9-2.2,4.9-4.9c0-2.7-2.2-4.9-4.9-4.9c-2.7,0-4.9,2.2-4.9,4.9c0,0,0,0,0,0
		C-45.5,77.8-43.3,80-40.6,80z"/>
	<path class="st0" d="M-46.8,86.2c0-2.7-2.2-4.9-4.9-4.9c-2.7,0-4.9,2.2-4.9,4.9c0,2.7,2.2,4.9,4.9,4.9c0,0,0,0,0,0
		C-49,91.1-46.8,88.9-46.8,86.2L-46.8,86.2z"/>
	<path class="st0" d="M-40.6,81.3c-2.7,0-4.9,2.2-4.9,4.9c0,2.7,2.2,4.9,4.9,4.9c2.7,0,4.9-2.2,4.9-4.9
		C-35.7,83.5-37.9,81.3-40.6,81.3C-40.6,81.3-40.6,81.3-40.6,81.3z"/>
	<path class="st0" d="M-29.5,91.1c2.7,0,4.9-2.2,4.9-4.9c0-2.7-2.2-4.9-4.9-4.9c-2.7,0-4.9,2.2-4.9,4.9
		C-34.4,88.9-32.3,91.1-29.5,91.1C-29.5,91.1-29.5,91.1-29.5,91.1z"/>
	<path class="st0" d="M-62.8,92.4c-2.7,0-4.9,2.2-4.9,4.9c0,2.7,2.2,4.9,4.9,4.9c2.7,0,4.9-2.2,4.9-4.9c0,0,0,0,0,0
		C-57.9,94.6-60.1,92.4-62.8,92.4z"/>
	<path class="st0" d="M-51.7,92.4c-2.7,0-4.9,2.2-4.9,4.9c0,2.7,2.2,4.9,4.9,4.9c2.7,0,4.9-2.2,4.9-4.9c0,0,0,0,0,0
		C-46.8,94.6-49,92.4-51.7,92.4z"/>
	<path class="st0" d="M-45.5,97.3c0,2.7,2.2,4.9,4.9,4.9c2.7,0,4.9-2.2,4.9-4.9c0-2.7-2.2-4.9-4.9-4.9c0,0,0,0,0,0
		C-43.3,92.4-45.5,94.6-45.5,97.3C-45.5,97.3-45.5,97.3-45.5,97.3z"/>
	<path class="st0" d="M-73.9,103.5c-2.7,0-4.9,2.2-4.9,4.9s2.2,4.9,4.9,4.9s4.9-2.2,4.9-4.9C-69,105.7-71.2,103.5-73.9,103.5z"/>
	<path class="st0" d="M-62.8,103.5c-2.7,0-4.9,2.2-4.9,4.9s2.2,4.9,4.9,4.9c2.7,0,4.9-2.2,4.9-4.9
		C-57.9,105.7-60.1,103.5-62.8,103.5C-62.8,103.5-62.8,103.5-62.8,103.5z"/>
	<path class="st0" d="M-51.7,113.3c2.7,0,4.9-2.2,4.9-4.9s-2.2-4.9-4.9-4.9c-2.7,0-4.9,2.2-4.9,4.9
		C-56.6,111.1-54.4,113.3-51.7,113.3C-51.7,113.3-51.7,113.3-51.7,113.3z"/>
	<path class="st0" d="M-73.9,14.8c-2.7,0-4.9,2.2-4.9,4.9s2.2,4.9,4.9,4.9s4.9-2.2,4.9-4.9c0,0,0,0,0,0
		C-69,16.9-71.2,14.8-73.9,14.8z"/>
	<path class="st0" d="M-57.9,19.6c0-2.7-2.2-4.9-4.9-4.9c-2.7,0-4.9,2.2-4.9,4.9s2.2,4.9,4.9,4.9C-60.1,24.6-57.9,22.4-57.9,19.6
		L-57.9,19.6z"/>
	<path class="st0" d="M-51.7,24.6c2.7,0,4.9-2.2,4.9-4.9c0-2.7-2.2-4.9-4.9-4.9c-2.7,0-4.9,2.2-4.9,4.9v0
		C-56.6,22.4-54.4,24.6-51.7,24.6z"/>
	<path class="st0" d="M-62.8,25.8c-2.7,0-4.9,2.2-4.9,4.9s2.2,4.9,4.9,4.9c2.7,0,4.9-2.2,4.9-4.9C-57.9,28-60.1,25.8-62.8,25.8
		C-62.8,25.8-62.8,25.8-62.8,25.8z"/>
	<path class="st0" d="M-46.8,30.7c0-2.7-2.2-4.9-4.9-4.9s-4.9,2.2-4.9,4.9c0,2.7,2.2,4.9,4.9,4.9c0,0,0,0,0,0
		C-49,35.6-46.8,33.4-46.8,30.7L-46.8,30.7z"/>
	<path class="st0" d="M-40.6,35.6c2.7,0,4.9-2.2,4.9-4.9s-2.2-4.9-4.9-4.9c-2.7,0-4.9,2.2-4.9,4.9C-45.5,33.4-43.3,35.6-40.6,35.6z"
		/>
	<path class="st0" d="M-46.8,41.8c0-2.7-2.2-4.9-4.9-4.9c-2.7,0-4.9,2.2-4.9,4.9c0,2.7,2.2,4.9,4.9,4.9c0,0,0,0,0,0
		C-49,46.7-46.8,44.5-46.8,41.8C-46.8,41.8-46.8,41.8-46.8,41.8z"/>
	<path class="st0" d="M-40.6,36.9c-2.7,0-4.9,2.2-4.9,4.9c0,2.7,2.2,4.9,4.9,4.9c2.7,0,4.9-2.2,4.9-4.9c0,0,0,0,0,0
		C-35.7,39.1-37.9,36.9-40.6,36.9C-40.6,36.9-40.6,36.9-40.6,36.9z"/>
	<path class="st0" d="M-29.5,46.7c2.7,0,4.9-2.2,4.9-4.9c0-2.7-2.2-4.9-4.9-4.9c-2.7,0-4.9,2.2-4.9,4.9v0
		C-34.4,44.5-32.2,46.7-29.5,46.7z"/>
	<path class="st0" d="M-62.8,47.9c-2.7,0-4.9,2.2-4.9,4.9s2.2,4.9,4.9,4.9c2.7,0,4.9-2.2,4.9-4.9c0,0,0,0,0,0
		C-57.9,50.1-60.1,47.9-62.8,47.9C-62.8,47.9-62.8,47.9-62.8,47.9z"/>
	<path class="st0" d="M-51.7,47.9c-2.7,0-4.9,2.2-4.9,4.9s2.2,4.9,4.9,4.9c2.7,0,4.9-2.2,4.9-4.9C-46.8,50.1-49,47.9-51.7,47.9z"/>
	<path class="st0" d="M-45.5,52.9c0,2.7,2.3,4.9,5,4.9c2.7,0,4.9-2.3,4.9-5c0-2.7-2.2-4.9-4.9-4.9C-43.4,48-45.5,50.2-45.5,52.9
		C-45.5,52.9-45.5,52.9-45.5,52.9z"/>
	<path class="st0" d="M-73.9,59.1c-2.7,0-4.9,2.2-4.9,4.9c0,2.7,2.2,4.9,4.9,4.9S-69,66.7-69,64c0,0,0,0,0,0
		C-69,61.3-71.2,59.1-73.9,59.1z"/>
	<path class="st0" d="M-62.8,59.1c-2.7,0-4.9,2.2-4.9,4.9s2.2,4.9,4.9,4.9c2.7,0,4.9-2.2,4.9-4.9c0,0,0,0,0,0
		C-57.9,61.3-60.1,59.1-62.8,59.1C-62.8,59.1-62.8,59.1-62.8,59.1z"/>
	<path class="st0" d="M-51.7,68.9c2.7,0,4.9-2.2,4.9-4.9c0-2.7-2.2-4.9-4.9-4.9c-2.7,0-4.9,2.2-4.9,4.9v0
		C-56.6,66.7-54.4,68.9-51.7,68.9z"/>
	<path class="st1" d="M-118.3,59.1c-2.7,0-4.9,2.2-4.9,4.9c0,2.7,2.2,4.9,4.9,4.9c2.7,0,4.9-2.2,4.9-4.9
		C-113.4,61.3-115.6,59.1-118.3,59.1C-118.3,59.1-118.3,59.1-118.3,59.1z"/>
	<path class="st1" d="M-102.3,64c0-2.7-2.2-4.9-4.9-4.9s-4.9,2.2-4.9,4.9c0,2.7,2.2,4.9,4.9,4.9c0,0,0,0,0,0
		C-104.5,68.9-102.3,66.7-102.3,64L-102.3,64z"/>
	<path class="st1" d="M-96.2,68.9c2.7,0,4.9-2.2,4.9-4.9s-2.2-4.9-4.9-4.9c-2.7,0-4.9,2.2-4.9,4.9C-101.1,66.7-98.9,68.9-96.2,68.9z
		"/>
	<path class="st1" d="M-107.2,70.2c-2.7,0-4.9,2.2-4.9,4.9c0,2.7,2.2,4.9,4.9,4.9c2.7,0,4.9-2.2,4.9-4.9c0,0,0,0,0,0
		C-102.4,72.4-104.5,70.2-107.2,70.2z"/>
	<path class="st1" d="M-91.3,75.1c0-2.7-2.2-4.9-4.9-4.9s-4.9,2.2-4.9,4.9c0,2.7,2.2,4.9,4.9,4.9c0,0,0,0,0,0
		C-93.5,80-91.3,77.8-91.3,75.1z"/>
	<path class="st1" d="M-85.1,80c2.7,0,4.9-2.3,4.9-5c0-2.7-2.3-4.9-5-4.9c-2.7,0-4.9,2.2-4.9,4.9C-90.1,77.8-87.9,80-85.1,80
		C-85.1,80-85.1,80-85.1,80z"/>
	<path class="st1" d="M-91.3,86.2c0-2.7-2.2-4.9-4.9-4.9c-2.7,0-4.9,2.2-4.9,4.9c0,2.7,2.2,4.9,4.9,4.9c0,0,0,0,0,0
		C-93.5,91.1-91.3,88.9-91.3,86.2z"/>
	<path class="st1" d="M-85.1,81.3c-2.7,0-4.9,2.2-4.9,4.9s2.2,4.9,4.9,4.9s4.9-2.2,4.9-4.9S-82.4,81.3-85.1,81.3L-85.1,81.3z"/>
	<path class="st1" d="M-74,91.1c2.7,0,4.9-2.2,4.9-4.9s-2.2-4.9-4.9-4.9s-4.9,2.2-4.9,4.9C-78.9,88.9-76.7,91.1-74,91.1z"/>
	<path class="st1" d="M-107.2,92.4c-2.7,0-4.9,2.2-4.9,4.9s2.2,4.9,4.9,4.9c2.7,0,4.9-2.2,4.9-4.9c0,0,0,0,0,0
		C-102.4,94.6-104.5,92.4-107.2,92.4z"/>
	<path class="st1" d="M-96.2,92.4c-2.7,0-4.9,2.2-4.9,4.9s2.2,4.9,4.9,4.9c2.7,0,4.9-2.2,4.9-4.9l0,0
		C-91.3,94.6-93.5,92.4-96.2,92.4z"/>
	<path class="st1" d="M-90,97.3c0,2.7,2.2,4.9,4.9,4.9c2.7,0,4.9-2.2,4.9-4.9c0-2.7-2.2-4.9-4.9-4.9C-87.9,92.4-90,94.6-90,97.3
		C-90,97.3-90,97.3-90,97.3z"/>
	<path class="st1" d="M-118.3,103.5c-2.7,0-4.9,2.2-4.9,4.9c0,2.7,2.2,4.9,4.9,4.9c2.7,0,4.9-2.2,4.9-4.9
		C-113.4,105.7-115.6,103.5-118.3,103.5C-118.3,103.5-118.3,103.5-118.3,103.5z"/>
	<path class="st1" d="M-107.2,103.5c-2.7,0-4.9,2.2-4.9,4.9c0,2.7,2.2,4.9,4.9,4.9s4.9-2.2,4.9-4.9
		C-102.4,105.7-104.5,103.5-107.2,103.5z"/>
	<path class="st1" d="M-96.2,113.3c2.7,0,4.9-2.2,4.9-4.9c0-2.7-2.2-4.9-4.9-4.9c-2.7,0-4.9,2.2-4.9,4.9
		C-101.1,111.1-98.9,113.3-96.2,113.3z"/>
	<path class="st1" d="M-118.3,14.8c-2.7,0-4.9,2.2-4.9,4.9c0,2.7,2.2,4.9,4.9,4.9c2.7,0,4.9-2.2,4.9-4.9c0,0,0,0,0,0
		C-113.4,16.9-115.6,14.8-118.3,14.8C-118.3,14.8-118.3,14.8-118.3,14.8z"/>
	<path class="st1" d="M-102.3,19.6c0-2.7-2.2-4.9-4.9-4.9c-2.7,0-4.9,2.2-4.9,4.9c0,2.7,2.2,4.9,4.9,4.9c0,0,0,0,0,0
		C-104.5,24.6-102.3,22.4-102.3,19.6C-102.3,19.7-102.3,19.7-102.3,19.6z"/>
	<path class="st1" d="M-96.2,24.6c2.7,0,4.9-2.2,4.9-4.9s-2.2-4.9-4.9-4.9c-2.7,0-4.9,2.2-4.9,4.9c0,0,0,0,0,0
		C-101.1,22.4-98.9,24.6-96.2,24.6z"/>
	<path class="st1" d="M-107.2,25.8c-2.7,0-4.9,2.2-4.9,4.9s2.2,4.9,4.9,4.9s4.9-2.2,4.9-4.9l0,0C-102.4,28-104.5,25.9-107.2,25.8z"
		/>
	<path class="st1" d="M-91.3,30.7c0-2.7-2.2-4.9-4.9-4.9c-2.7,0-4.9,2.2-4.9,4.9c0,2.7,2.2,4.9,4.9,4.9c0,0,0,0,0,0
		C-93.5,35.6-91.3,33.5-91.3,30.7z"/>
	<path class="st1" d="M-85.1,35.6c2.7,0,4.9-2.3,4.8-5c0-2.7-2.3-4.9-5-4.8c-2.7,0-4.8,2.2-4.8,4.9C-90.1,33.4-87.9,35.6-85.1,35.6
		C-85.1,35.6-85.1,35.6-85.1,35.6z"/>
	<path class="st1" d="M-91.3,41.8c0-2.7-2.2-4.9-4.9-4.9c-2.7,0-4.9,2.2-4.9,4.9s2.2,4.9,4.9,4.9l0,0
		C-93.5,46.7-91.3,44.5-91.3,41.8z"/>
	<path class="st1" d="M-85.1,36.9c-2.7,0-4.9,2.2-4.9,4.9c0,2.7,2.2,4.9,4.9,4.9c2.7,0,4.9-2.2,4.9-4.9c0,0,0,0,0,0
		C-80.2,39.1-82.4,36.9-85.1,36.9L-85.1,36.9z"/>
	<path class="st1" d="M-74,46.7c2.7,0,4.9-2.2,4.9-4.9s-2.2-4.9-4.9-4.9c-2.7,0-4.9,2.2-4.9,4.9c0,0,0,0,0,0
		C-78.9,44.5-76.7,46.7-74,46.7z"/>
	<path class="st1" d="M-107.2,47.9c-2.7,0-4.9,2.2-4.9,4.9c0,2.7,2.2,4.9,4.9,4.9s4.9-2.2,4.9-4.9c0,0,0,0,0,0
		C-102.4,50.1-104.5,47.9-107.2,47.9z"/>
	<path class="st1" d="M-96.2,47.9c-2.7,0-4.9,2.2-4.9,4.9c0,2.7,2.2,4.9,4.9,4.9c2.7,0,4.9-2.2,4.9-4.9
		C-91.3,50.1-93.4,47.9-96.2,47.9C-96.2,47.9-96.2,47.9-96.2,47.9z"/>
	<path class="st1" d="M-90,52.9c0,2.7,2.3,4.9,5,4.8c2.7,0,4.9-2.3,4.8-5c0-2.6-2.2-4.8-4.8-4.8C-87.8,47.9-90,50.1-90,52.9
		C-90,52.9-90,52.9-90,52.9z"/>
	<path class="st1" d="M-118.3,59.1c-2.7,0-4.9,2.2-4.9,4.9c0,2.7,2.2,4.9,4.9,4.9s4.9-2.2,4.9-4.9c0,0,0,0,0,0
		C-113.4,61.3-115.6,59.1-118.3,59.1C-118.3,59.1-118.3,59.1-118.3,59.1z"/>
	<path class="st1" d="M-107.2,59.1c-2.7,0-4.9,2.2-4.9,4.9c0,2.7,2.2,4.9,4.9,4.9c2.7,0,4.9-2.2,4.9-4.9c0,0,0,0,0,0
		C-102.4,61.3-104.5,59.1-107.2,59.1z"/>
	<path class="st1" d="M-96.2,68.9c2.7,0,4.9-2.2,4.9-4.9s-2.2-4.9-4.9-4.9s-4.9,2.2-4.9,4.9c0,0,0,0,0,0
		C-101.1,66.7-98.9,68.9-96.2,68.9z"/>
</g>
</svg>
